<mxfile host="app.diagrams.net" modified="2020-07-22T14:05:25.957Z" agent="5.0 (Windows NT 10.0; Win64; x64) AppleWebKit/537.36 (KHTML, like Gecko) Chrome/83.0.4103.116 Safari/537.36" etag="NYvaYcVTMpiXeD18CCKN" version="13.5.0" type="github">
  <diagram id="6fkA1qd8soi0L3PjMzN8" name="Page-1">
    <mxGraphModel dx="1221" dy="688" grid="1" gridSize="10" guides="1" tooltips="1" connect="1" arrows="1" fold="1" page="1" pageScale="1" pageWidth="827" pageHeight="1169" math="0" shadow="0">
      <root>
        <mxCell id="0" />
        <mxCell id="1" parent="0" />
        <mxCell id="N1DQkC1bA7dR1-oS_HL2-6" value="" style="group" vertex="1" connectable="0" parent="1">
          <mxGeometry x="60" y="40" width="260" height="250" as="geometry" />
        </mxCell>
        <mxCell id="N1DQkC1bA7dR1-oS_HL2-3" value="&lt;b style=&quot;font-size: 17px&quot;&gt;id : autoField&lt;br&gt;password : charField(max=20)&lt;br&gt;email : emailField&lt;br&gt;is_active: booleanField&lt;br&gt;is_valid: booleanField&lt;br&gt;like : charField(max=100)&lt;/b&gt;" style="rounded=0;whiteSpace=wrap;html=1;" vertex="1" parent="N1DQkC1bA7dR1-oS_HL2-6">
          <mxGeometry y="7.575757575757575" width="260" height="242.4242424242424" as="geometry" />
        </mxCell>
        <mxCell id="N1DQkC1bA7dR1-oS_HL2-11" value="&lt;font style=&quot;font-size: 15px&quot;&gt;&lt;b&gt;User_Model&lt;/b&gt;&lt;/font&gt;" style="text;html=1;strokeColor=none;fillColor=none;align=center;verticalAlign=middle;whiteSpace=wrap;rounded=0;" vertex="1" parent="1">
          <mxGeometry x="60" y="24.844242424242424" width="89.65517241379311" height="15.15151515151515" as="geometry" />
        </mxCell>
      </root>
    </mxGraphModel>
  </diagram>
</mxfile>
